<?xml version="1.0" encoding="utf-8"?>
<!-- Generator: Adobe Illustrator 19.0.0, SVG Export Plug-In . SVG Version: 6.00 Build 0)  -->
<svg version="1.1" id="Слой_1" xmlns="http://www.w3.org/2000/svg" xmlns:xlink="http://www.w3.org/1999/xlink" x="0px" y="0px"
	 viewBox="-546 1822.8 465.4 465.4" style="enable-background:new -546 1822.8 465.4 465.4;" xml:space="preserve">
<style type="text/css">
	.st0{fill:#FFFFFF;}
</style>
<g>
	<path class="st0" d="M-313.3,1875.1c-59.3,0-93.9,25.2-118.3,72.2c-0.7,4,2.9,2.8,9.3,4c21.1,4.3,37.4,17.8,108.8,17.8
		c77.2,0,89.4-12.1,110.5-16.3c6.3-1.3,8.7-1.4,7.9-5.5C-204.9,1916.3-254,1875.1-313.3,1875.1z"/>
	<path class="st0" d="M-313.3,1714.7c-188.2,0-340.9,152.7-340.9,340.9s152.7,340.9,340.9,340.9s340.9-152.5,340.9-340.9
		C27.6,1867.2-125.1,1714.7-313.3,1714.7z M-300.9,2228.1H-326c-100.4,0-141.7-44.4-141.7-122.8c0-17.8,3.2-34.9,9.2-50.6
		c-0.3-5.6-0.5-11.1-0.5-16.7c0-110.5,65.3-173.9,145.6-173.9s145.6,63.4,145.6,173.9c0,5.8-0.2,11.3-0.5,16.7
		c6,15.7,9.2,32.6,9.1,50.6C-159,2183.5-194.3,2228.1-300.9,2228.1z"/>
</g>
</svg>
