<?xml version="1.0" encoding="utf-8"?>
<!-- Generator: Adobe Illustrator 19.0.0, SVG Export Plug-In . SVG Version: 6.00 Build 0)  -->
<svg version="1.1" id="Слой_1" xmlns="http://www.w3.org/2000/svg" xmlns:xlink="http://www.w3.org/1999/xlink" x="0px" y="0px"
	 viewBox="-546 1822.8 465.4 465.4" style="enable-background:new -546 1822.8 465.4 465.4;" xml:space="preserve">
<style type="text/css">
	.st0{fill:rgba(0,0,0,0);}
	.st1{fill:#FFFFFF;}
</style>
<rect x="-595.9" y="1801" class="st0" width="566.7" height="531.3"/>
<g>
	<path class="st1" d="M-312.6,1844.9c-73.2,0-115.8,31.1-145.9,89.1c-0.9,4.9,3.6,3.5,11.5,4.9c26,5.3,46.1,22,134.2,22
		c95.2,0,110.3-14.9,136.3-20.1c7.8-1.6,10.7-1.7,9.7-6.8C-178.8,1895.7-239.4,1844.9-312.6,1844.9z"/>
	<path class="st1" d="M-312.6,1647c-232.2,0-420.5,188.4-420.5,420.5c0,232.2,188.4,420.5,420.5,420.5S108,2300,108,2067.5
		C108,1835.1-80.4,1647-312.6,1647z M-297.3,2280.3h-31c-123.9,0-174.8-54.8-174.8-151.5c0-22,3.9-43.1,11.3-62.4
		c-0.4-6.9-0.6-13.7-0.6-20.6c0-136.3,80.6-214.5,179.6-214.5s179.6,78.2,179.6,214.5c0,7.2-0.2,13.9-0.6,20.6
		c7.4,19.4,11.3,40.2,11.2,62.4C-122.2,2225.3-165.8,2280.3-297.3,2280.3z"/>
</g>
</svg>
