<?xml version="1.0" encoding="utf-8"?>
<!-- Generator: Adobe Illustrator 19.0.0, SVG Export Plug-In . SVG Version: 6.00 Build 0)  -->
<svg version="1.1" id="Слой_1" xmlns="http://www.w3.org/2000/svg" xmlns:xlink="http://www.w3.org/1999/xlink" x="0px" y="0px"
	 viewBox="-546 1822.8 465.4 465.4" style="enable-background:new -546 1822.8 465.4 465.4;" xml:space="preserve">
<style type="text/css">
	.st0{fill:#FFFFFF;}
</style>
<g>
	<path class="st0" d="M-313.3,1868.6c-68.5,0-125.6,43.2-136.5,136c-0.8,7.6,3.4,5.2,10.7,7.5c24.4,8.1,43.2,33.5,125.6,33.5
		c89.1,0,103.2-22.7,127.6-30.7c7.3-2.5,10-2.7,9.1-10.3C-187.7,1911.8-244.8,1868.6-313.3,1868.6z"/>
	<path class="st0" d="M-313.3,1694.2c-199.5,0-361.3,161.8-361.3,361.3s161.8,361.3,361.3,361.3S48,2255.2,48,2055.5
		C48,1855.9-113.8,1694.2-313.3,1694.2z M-300.1,2258.5h-26.6c-106.4,0-150.3-67.2-150.3-150.3c0-18.9,3.4-37,9.8-53.6
		c-0.3-5.9-0.5-11.8-0.5-17.7c0-117.1,69.2-184.3,154.3-184.3s154.3,67.2,154.3,184.3c0,6.1-0.2,12-0.5,17.7
		c6.4,16.6,9.8,34.6,9.6,53.6C-149.8,2191.1-187.1,2258.5-300.1,2258.5z"/>
</g>
</svg>
