<?xml version="1.0" encoding="utf-8"?>
<!-- Generator: Adobe Illustrator 19.0.0, SVG Export Plug-In . SVG Version: 6.00 Build 0)  -->
<svg version="1.1" id="Слой_1" xmlns="http://www.w3.org/2000/svg" xmlns:xlink="http://www.w3.org/1999/xlink" x="0px" y="0px"
	 viewBox="0 0 298.6 298.6" style="enable-background:new 0 0 298.6 298.6;" xml:space="preserve">
<style type="text/css">
	.st0{fill:#FFFFFF;}
</style>
<path class="st0" d="M248.4,148.7c0.2-3.7,0.3-7.5,0.3-11.4c0-75.4-44.6-118.7-99.4-118.7c-54.8,0-99.4,43.3-99.4,118.7
	c0,3.8,0.1,7.6,0.3,11.4c-4.1,10.7-6.3,22.3-6.3,34.5v0c0,53.5,28.3,96.8,96.8,96.8h17.1c72.8,0,96.8-43.4,96.8-96.8v0
	C254.7,171,252.5,159.4,248.4,148.7z M149.3,28.9c44.1,0,80.9,27.8,87.9,87.6c0.6,4.9-2.3,9.6-7,11.2c-15.7,5.2-23.5,37.5-80.9,37.5
	c-53.1,0-65.2-32.3-80.9-37.5c-4.7-1.5-7.5-6.3-7-11.2C68.4,56.7,105.2,28.9,149.3,28.9z"/>
</svg>
